<svg width="15" height="16" viewBox="0 0 15 16" fill="none" xmlns="http://www.w3.org/2000/svg">
<path fill-rule="evenodd" clip-rule="evenodd" d="M6.13903 0.12562C3.47243 0.733959 1.40759 2.53822 0.446477 5.09991C-0.100704 6.55809 -0.121796 6.79268 0.25709 7.20147C0.562766 7.53114 0.739877 7.59554 1.26574 7.56797C1.40748 7.56061 1.92888 7.16498 2.50117 6.63063C4.85897 4.42952 6.79558 3.6838 8.49203 4.32406C10.1551 4.95159 11.1571 6.82593 10.7857 8.61468C10.6192 9.41698 10.201 9.89955 9.27894 10.3534C8.69917 10.6389 8.43601 10.7015 7.80982 10.703C6.37987 10.7062 5.57891 10.2345 4.23155 8.59571C3.39654 7.58003 2.32171 7.40336 1.56729 8.15778C0.920336 8.80474 0.937857 9.81841 1.6203 11.2273C3.62745 15.3708 8.89056 16.2904 12.3118 13.0952C13.6511 11.8445 14.3244 10.4669 14.5835 8.44795C14.8183 6.61691 14.8255 6.28076 14.6475 5.43471C14.1471 3.05526 12.4163 1.16876 9.92343 0.28588C9.08017 -0.0127647 7.11119 -0.0962429 6.13903 0.12562Z" fill="#30C330"/>
</svg>
