<svg width="41" height="41" viewBox="0 0 41 41" fill="none" xmlns="http://www.w3.org/2000/svg">
<path fill-rule="evenodd" clip-rule="evenodd" d="M18.2013 1.09006C8.9543 2.22579 1.68679 9.59725 0.729815 18.8117C0.588006 20.1773 0.673897 22.763 0.904536 24.0682C1.26959 26.1347 1.87369 27.9529 2.81262 29.8108L3.28439 30.7446L1.87864 35.8474C1.10545 38.654 0.485239 40.9595 0.500267 40.9706C0.51538 40.9816 2.87021 40.3756 5.73325 39.6239C9.90121 38.5295 10.9806 38.2729 11.1487 38.3366C11.2641 38.3803 11.812 38.6205 12.3661 38.8702C14.1659 39.6813 16.0559 40.2192 18.0447 40.4865C19.4268 40.6722 21.8525 40.6711 23.197 40.4841C27.61 39.8702 31.5528 37.9308 34.6603 34.8453C36.2854 33.2319 37.3659 31.7561 38.3947 29.7454C39.3211 27.9345 39.9748 25.9604 40.3401 23.8702C40.5536 22.6485 40.5532 19.0588 40.3396 17.7785C39.9784 15.6156 39.4211 13.8876 38.4688 11.9789C35.7589 6.54714 30.7544 2.67516 24.7707 1.38054C22.9055 0.976988 20.1237 0.853985 18.2013 1.09006ZM23.4489 4.54381C25.8573 4.9865 27.8545 5.78618 29.8298 7.09874C33.2022 9.33965 35.6846 12.8194 36.6659 16.6811C37.3865 19.517 37.3298 22.738 36.5114 25.4649C35.1881 29.874 32.0341 33.5853 27.9068 35.59C25.5072 36.7554 23.2869 37.2636 20.5942 37.2636C17.508 37.2636 14.7722 36.5194 11.98 34.92L11.5098 34.6507L8.41981 35.4576C6.72029 35.9014 5.3169 36.2517 5.30111 36.236C5.28533 36.2204 5.63401 34.8987 6.07598 33.2989C6.51786 31.6991 6.88267 30.3314 6.88662 30.2596C6.89056 30.1876 6.67327 29.7721 6.40376 29.3361C2.44403 22.9308 3.48186 14.4838 8.88487 9.14163C11.5725 6.48423 14.9751 4.85115 18.7891 4.38801C19.8192 4.26292 22.3878 4.34879 23.4489 4.54381ZM12.7563 11.825C12.2707 12.0639 11.3835 13.1053 11.0126 13.8718C10.284 15.3774 10.2988 17.2752 11.053 19.0326C11.9797 21.192 14.4045 24.2583 16.7982 26.2975C18.4761 27.7268 19.8779 28.5643 21.9376 29.3677C24.0415 30.1884 24.4451 30.2829 25.8417 30.2824C26.9402 30.2819 27.1145 30.2612 27.6252 30.0699C28.465 29.7555 29.0917 29.3593 29.7162 28.7484C30.2006 28.2744 30.2982 28.1261 30.4568 27.6219C30.6546 26.9933 30.7676 25.9816 30.6792 25.6314C30.6329 25.4483 30.3957 25.2997 29.2029 24.7061C27.0174 23.6185 26.1365 23.2444 25.7621 23.2444C25.4554 23.2444 25.4031 23.2817 25.0323 23.7659C24.1845 24.8727 23.4066 25.7298 23.2039 25.7803C22.9612 25.8408 22.4842 25.6673 21.3826 25.1173C19.5989 24.227 18.1437 23.0365 16.8927 21.444C16.2117 20.5773 15.5986 19.5896 15.5986 19.3595C15.5986 19.261 15.9143 18.771 16.3002 18.2708C17.0564 17.2904 17.2778 16.9246 17.2778 16.6553C17.2778 16.5608 17.1138 16.0989 16.9134 15.629C16.713 15.1589 16.3088 14.1923 16.0152 13.4809C15.6512 12.5992 15.3957 12.1011 15.2125 11.9163L14.9437 11.6451L14.0327 11.6452C13.2691 11.6452 13.0626 11.6743 12.7563 11.825Z" fill="white"/>
</svg>
