<svg width="80" height="80" viewBox="0 0 80 80" fill="none" xmlns="http://www.w3.org/2000/svg">
<rect width="80" height="80" rx="16" fill="#30C330"/>
<path fill-rule="evenodd" clip-rule="evenodd" d="M28.8604 20.0751C28.587 20.1856 28.3612 20.5393 28.3612 20.8574C28.3612 21.0705 28.4358 21.2458 28.6402 21.5135C29.1949 22.24 29.4481 23.0094 29.8059 25.0558C30.0744 26.5909 30.2715 27.3601 30.5482 27.9518C31.3931 29.7591 34.0219 30.544 35.9527 29.5656C36.1586 29.4613 36.3425 29.376 36.3616 29.376C36.3807 29.376 36.5364 29.5979 36.7077 29.8691C37.7416 31.5063 39.2463 35.1655 40.634 39.4178C41.945 43.4351 41.8013 43.071 42.1421 43.2375C42.3969 43.3619 42.4881 43.3707 42.7391 43.2955C43.1031 43.1865 43.2036 43.0369 43.4811 42.1919C43.7703 41.3116 44.2132 40.2066 44.629 39.3283L44.9673 38.6137L45.5469 38.9544C48.4659 40.6705 52.2732 40.2045 54.6451 37.841C55.8322 36.6581 56.2954 35.3171 57.0832 30.7826C57.7363 27.0231 58.1193 25.6593 58.9102 24.2772C59.0967 23.9512 59.4033 23.5084 59.5915 23.2933C59.9776 22.8518 60.0754 22.5321 59.9309 22.1834C59.7694 21.7934 59.5184 21.7176 58.3927 21.7186C56.6683 21.72 54.2685 22.0349 52.4302 22.5009C48.941 23.3855 46.1757 24.8107 44.1388 26.7743C42.5759 28.2809 41.8231 29.9477 41.7446 32.0749C41.7079 33.0714 41.8413 34.1628 42.0476 34.5524C42.1444 34.7352 42.5254 34.9244 42.797 34.9244C43.1547 34.9244 43.3403 34.7312 44.1017 33.5668C45.4023 31.578 46.9717 29.5988 48.468 28.0604C49.2265 27.2807 49.3509 27.1879 49.6382 27.1879C50.1215 27.1879 50.4766 27.5462 50.4766 28.0338C50.4766 28.3159 50.3488 28.4919 49.4886 29.3944C46.9003 32.1097 44.4571 35.6592 43.0064 38.8117C42.78 39.3038 42.5783 39.7228 42.5583 39.7428C42.5383 39.7629 42.2846 39.0649 41.9945 38.1919C40.6325 34.0927 39.2125 30.7436 38.0556 28.902L37.5924 28.1647L37.7826 27.8232C38.2706 26.9466 38.4264 25.6506 38.1646 24.6454C37.5444 22.2645 34.3664 20.406 30.354 20.0777C29.2463 19.9871 29.079 19.9868 28.8604 20.0751ZM20.5466 38.4631C20.3614 38.5274 20.229 38.6465 20.1365 38.8317C20.0089 39.0871 19.9998 39.668 20 47.584C20.0002 55.8504 20.004 56.0691 20.1525 56.3126C20.3977 56.7148 20.6044 56.7392 23.5295 56.7123L26.1607 56.688L26.3637 56.4973C26.6044 56.2711 26.6269 56.1997 27.4254 53.1324C28.7066 48.2104 29.5593 44.2951 29.8893 41.8169C29.9597 41.2883 29.995 40.7666 29.9676 40.6576C29.764 39.8462 27.582 39.1172 24.0632 38.6848C23.354 38.5976 22.4573 38.5054 22.0705 38.4799C21.6837 38.4544 21.2441 38.4187 21.0937 38.4008C20.9432 38.3828 20.6971 38.4109 20.5466 38.4631ZM31.5244 43.1617C31.5098 43.2085 31.3876 43.8272 31.2527 44.5363C30.8626 46.5881 29.9203 50.2542 29.016 53.2383C28.8225 53.8768 28.6751 54.4071 28.6886 54.4168C28.8443 54.5298 37.6317 58.4464 38.5593 58.8163C40.9185 59.7571 42.4421 60.0807 43.9904 59.9701C46.5807 59.7851 49.0877 58.947 53.2231 56.8834C56.9551 55.0212 59.2431 53.4353 59.8077 52.3194C60.0036 51.9324 60.025 51.8236 59.9805 51.4448C59.854 50.3684 59.0812 49.5163 57.8807 49.1294C57.2712 48.933 56.1845 48.9147 55.517 49.0897C55.2591 49.1573 53.7301 49.7781 52.1191 50.4692L49.1901 51.7258L46.2191 51.7244C42.996 51.7229 42.8742 51.7111 41.3725 51.2528C40.199 50.8948 39.1612 50.4816 38.9256 50.2787L38.7156 50.0977L38.9492 50.039C39.0779 50.0066 40.1477 50.0568 41.3326 50.1509C45.2534 50.462 46.8411 50.4534 48.1657 50.1138C49.3502 49.8102 50.0079 49.1575 50.0065 48.2873C50.006 47.9926 49.6695 47.3422 49.3725 47.0616C48.272 46.022 45.7253 45.3018 42.3873 45.0862C40.8731 44.9882 40.8191 44.9767 38.5202 44.2592C36.2674 43.5561 35.5524 43.4108 33.5579 43.2507C32.6983 43.1817 31.8951 43.1142 31.7729 43.1009C31.6507 43.0874 31.5389 43.1149 31.5244 43.1617Z" fill="white"/>
</svg>
