<svg width="80" height="80" viewBox="0 0 80 80" fill="none" xmlns="http://www.w3.org/2000/svg">
<rect width="80" height="80" rx="16" fill="#30C330"/>
<path fill-rule="evenodd" clip-rule="evenodd" d="M38.4956 20.0232C34.8343 20.3741 31.7477 21.4347 28.9544 23.3017C25.9423 25.3149 23.6148 27.967 22.0251 31.1973C21.0329 33.2135 20.4313 35.1914 20.0982 37.5335C19.9673 38.4535 19.9673 41.5417 20.0982 42.4617C20.4259 44.7658 21.0349 46.7841 21.9863 48.7197C23.0628 50.9095 24.1172 52.3807 25.8579 54.1215C27.5797 55.8432 29.0738 56.9183 31.1815 57.9523C32.6523 58.6737 33.6018 59.0249 35.0928 59.3989C39.0051 60.3802 42.929 60.192 46.7514 58.8398C47.91 58.43 49.9326 57.4163 50.9725 56.7244C53.3102 55.1688 55.4563 52.9688 56.9877 50.558C57.5511 49.671 58.4567 47.7996 58.826 46.7587C60.259 42.7209 60.3822 38.4487 59.1845 34.3263C58.9962 33.6786 58.3261 31.8756 58.2423 31.7919C58.2225 31.7721 57.5643 32.39 56.7797 33.165C55.9951 33.94 55.238 34.6407 55.0973 34.7222C54.9383 34.8142 54.8576 34.9122 54.884 34.9809C55.0469 35.4056 55.3374 36.5876 55.473 37.377C56.6515 44.2447 53.0947 51.1031 46.7708 54.1572C42.4513 56.2433 37.4355 56.2308 33.1372 54.1235C29.8799 52.5266 27.3875 50.0275 25.8248 46.7917C23.747 42.4895 23.747 37.5056 25.8248 33.2034C28.5539 27.5525 34.3414 24.0574 40.5685 24.2996C41.8426 24.3491 43.4193 24.6052 44.4767 24.9343C44.8192 25.0408 45.1029 25.1207 45.1073 25.1118C45.2409 24.8405 45.9491 24.0484 46.9391 23.0628C47.6302 22.3749 48.1955 21.7902 48.1955 21.7636C48.1955 21.7369 47.9051 21.5998 47.5501 21.459C44.9628 20.4324 42.4538 19.9536 39.8254 19.9846C39.2446 19.9914 38.6462 20.0088 38.4956 20.0232ZM52.8525 20.6805C52.5136 20.7817 47.1994 26.107 47.1075 26.4376C47.0626 26.5987 47.1013 27.4131 47.2187 28.7843L47.3985 30.8844L43.2284 35.0694C40.9348 37.3712 39.002 39.3671 38.9333 39.5048C38.4568 40.4604 39.5191 41.5227 40.4747 41.0461C40.6124 40.9774 42.6083 39.0448 44.91 36.7513L49.0951 32.5814L51.1635 32.7577C52.4108 32.8641 53.3403 32.9096 53.5048 32.8725C53.7255 32.8228 54.298 32.2911 56.5031 30.0876C59.4587 27.1342 59.4773 27.1102 59.3054 26.4718C59.2114 26.1226 58.803 25.7217 58.4683 25.6501C58.3468 25.624 57.4618 25.5361 56.5015 25.4547C55.5413 25.3733 54.7374 25.2884 54.7151 25.2661C54.6928 25.2438 54.608 24.4571 54.5266 23.5179C54.4453 22.5787 54.3586 21.6951 54.334 21.5544C54.2731 21.2057 53.877 20.7753 53.5279 20.6783C53.1982 20.5867 53.1661 20.5869 52.8525 20.6805ZM38.4956 26.7024C34.4738 27.1954 30.9405 29.384 28.776 32.7227C25.8907 37.1732 25.8904 42.8141 28.7752 47.2725C29.7673 48.806 31.1646 50.2029 32.7069 51.2032C38.1462 54.7312 45.3112 53.8579 49.7192 49.1297C53.0578 45.5486 54.1921 40.5683 52.721 35.9494C52.5942 35.5514 52.4482 35.2244 52.3964 35.2226C52.3446 35.2208 51.7743 35.1712 51.1289 35.1123L49.9555 35.0053L49.0201 35.9341L48.0846 36.8629L48.2516 37.3938C48.5513 38.3466 48.6214 38.8406 48.6214 39.9976C48.6214 41.1874 48.5512 41.6603 48.2204 42.6963C47.4028 45.2571 45.2534 47.4058 42.6806 48.2344C41.6504 48.5661 41.1746 48.6371 39.9819 48.6371C38.7911 48.6371 38.3172 48.5667 37.2831 48.2355C34.7214 47.4153 32.5727 45.2661 31.7451 42.6963C31.4133 41.6661 31.3423 41.1903 31.3423 39.9976C31.3423 38.8048 31.4133 38.3289 31.7452 37.2988C32.4195 35.2055 33.9882 33.3446 35.9376 32.3256C37.994 31.2506 40.4221 31.0311 42.5857 31.7247L43.1166 31.8948L44.0453 30.9594L44.9742 30.0239L44.8672 28.8505C44.8083 28.2052 44.7586 27.6348 44.7568 27.583C44.7525 27.4565 43.5064 27.0646 42.4459 26.8565C41.4626 26.6634 39.4529 26.585 38.4956 26.7024ZM39.0823 33.7122C38.0203 33.8819 36.7764 34.4377 35.9793 35.0989C35.2607 35.6949 34.7152 36.3885 34.3104 37.2206C33.8002 38.2693 33.6921 38.7548 33.6921 39.9976C33.6921 41.2391 33.7999 41.724 34.3092 42.7746C34.929 44.0528 35.9192 45.0412 37.2186 45.6787C40.3419 47.2108 44.1467 45.9006 45.6522 42.7746C46.1494 41.7422 46.2758 41.1706 46.2775 39.9454C46.2783 39.3789 46.2518 38.8883 46.2187 38.8551C46.1855 38.8219 45.2175 39.7291 44.0675 40.871C41.772 43.1502 41.6071 43.2708 40.5362 43.4545C39.432 43.6438 38.336 43.2853 37.5121 42.4651C36.6919 41.6487 36.3345 40.5543 36.5249 39.4432C36.7086 38.3724 36.8292 38.2075 39.1085 35.912C40.2503 34.762 41.1616 33.7982 41.1336 33.7702C41.071 33.7075 39.4062 33.6605 39.0823 33.7122Z" fill="white"/>
</svg>
