<svg width="80" height="81" viewBox="0 0 80 81" fill="none" xmlns="http://www.w3.org/2000/svg">
<rect y="0.968994" width="80" height="80" rx="16" fill="#30C330"/>
<path fill-rule="evenodd" clip-rule="evenodd" d="M34.338 15.8647C34.267 15.8933 34.1413 16.0473 34.0588 16.207C33.9339 16.4485 33.9086 17.1555 33.9086 20.411V24.3247H32.1777C30.2649 24.3247 29.9257 24.4062 29.803 24.8951C29.7094 25.2678 29.9105 25.7053 30.2372 25.8404C30.4296 25.92 33.6189 25.9444 41.3034 25.9252L52.0992 25.8983L52.2932 25.6586C52.541 25.3526 52.5411 24.9213 52.2934 24.6151C52.1042 24.381 52.0552 24.3747 50.2122 24.3437L48.3249 24.3121V20.2751V16.2383L48.0899 16.0175C47.7942 15.7397 47.4145 15.7358 47.0695 16.0072L46.802 16.2176V20.2712V24.3247H41.1709H35.5397L35.511 20.2547L35.4822 16.1848L35.2425 15.9908C35.0149 15.8065 34.6195 15.7514 34.338 15.8647ZM31.1924 31.4561C31.2368 35.9453 31.2415 35.9801 32.0229 37.5735C33.0972 39.7641 35.1138 41.3299 37.5127 41.8361C37.9036 41.9187 38.6917 41.9869 39.264 41.9879L40.3046 41.9896V52.3145C40.3046 57.9932 40.2662 62.596 40.2192 62.5429C40.1722 62.4899 39.8773 62.1038 39.5638 61.6851C39.2503 61.2663 38.8853 60.7908 38.7526 60.6284C38.5202 60.3441 38.5162 60.3123 38.6471 59.7655C38.8573 58.8867 38.8263 57.0142 38.5861 56.0777C37.5846 52.1715 34.286 49.1712 30 48.2676C29.1776 48.0943 26.7246 48.0969 25.8376 48.2722C24.3222 48.5715 22.5111 49.306 21.1168 50.1866C20.3128 50.6945 20 51.0167 20 51.3374C20 51.6886 20.1475 51.8534 21.3198 52.8108C22.7418 53.9722 24.1085 55.3381 25.6975 57.1854C27.6373 59.4408 29.1357 60.6509 30.9764 61.4486C33.0864 62.3629 35.0974 62.5101 37.5748 61.9317C37.8153 61.8755 37.9062 61.9582 38.5501 62.8181C38.9406 63.3396 39.5918 64.2688 39.997 64.883C40.4022 65.4972 40.7857 66.0345 40.8491 66.077C40.9126 66.1196 41.1229 66.1424 41.3165 66.1278C41.7805 66.0929 41.995 65.7668 42.4816 64.3568C43.2074 62.2536 44.3764 59.739 45.7546 57.3163L46.4304 56.1286L47.2942 56.0622C49.7245 55.8754 51.7449 54.9437 53.4586 53.2197C54.5605 52.1112 55.0638 51.3714 56.2082 49.1774C57.2898 47.1039 58.0691 45.8678 59.2216 44.3977C59.8765 43.5621 60 43.3444 60 43.0244C60 42.4267 59.7971 42.243 58.7564 41.8989C56.1219 41.0274 53.7061 40.8933 51.4056 41.4908C50.388 41.7551 48.7551 42.5358 47.9607 43.138C47.2399 43.6843 46.0626 44.8978 45.5975 45.5737C45.0954 46.3034 44.3899 47.8426 44.1459 48.7409C43.9693 49.3902 43.9236 49.8482 43.9174 51.0252C43.9086 52.6825 44.0341 53.3189 44.6108 54.5399L44.9521 55.2627L44.5411 55.9612C44.3151 56.3454 43.6349 57.634 43.0295 58.825L41.9289 60.9902V51.5044V42.0185L43.2741 41.9626C44.2557 41.9219 44.8114 41.8463 45.3299 41.6827C47.8677 40.8822 49.8613 38.9569 50.6116 36.5821C50.9937 35.3723 51.0786 34.2258 51.0455 30.7206L51.0152 27.5226L41.0841 27.4967L31.1529 27.4709L31.1924 31.4561ZM39.8985 31.7358V32.548H39.1371H38.3756V31.7358V30.9236H39.1371H39.8985V31.7358ZM43.8579 31.7358V32.548H43.0457H42.2335V31.8035C42.2335 31.394 42.264 31.0285 42.3012 30.9914C42.3384 30.9541 42.7039 30.9236 43.1134 30.9236H43.8579V31.7358ZM39.8985 36.5074V37.3196H39.1371H38.3756V36.5074V35.6952H39.1371H39.8985V36.5074ZM43.8579 36.5117V37.3281L43.0711 37.2985L42.2843 37.2688L42.2546 36.482L42.225 35.6952H43.0414H43.8579V36.5117Z" fill="white"/>
</svg>
