<svg width="80" height="81" viewBox="0 0 80 81" fill="none" xmlns="http://www.w3.org/2000/svg">
<rect y="0.968994" width="80" height="80" rx="16" fill="#30C330"/>
<path fill-rule="evenodd" clip-rule="evenodd" d="M36.0542 13.0359C35.667 13.1946 35.651 13.2926 35.651 15.5059V17.5647L35.871 17.7846C36.0835 17.9972 36.1154 18.0046 36.8117 18.0046H37.5325V19.2042V20.4037L37.175 20.4538C35.7697 20.6506 33.827 21.1801 32.4525 21.7409C30.8342 22.401 28.8167 23.5842 27.5415 24.621C27.2826 24.8315 27.0462 25.0037 27.0162 25.0037C26.9863 25.0037 26.683 24.7264 26.3422 24.3874L25.7228 23.7712L26.0585 23.4123C26.5761 22.8589 26.5563 22.8019 25.4689 21.7144C24.7016 20.9472 24.5056 20.7892 24.3206 20.7892C24.1298 20.7892 23.8394 21.0475 22.3107 22.5772C20.7868 24.1021 20.5239 24.3978 20.5239 24.5871C20.5239 24.7705 20.6842 24.9691 21.4492 25.7342C22.5366 26.8216 22.5936 26.8414 23.147 26.3238L23.5059 25.988L24.1222 26.6075C24.4611 26.9483 24.7384 27.2515 24.7384 27.2815C24.7384 27.3115 24.5663 27.5478 24.3558 27.8067C23.7538 28.5471 22.7594 30.0777 22.2651 31.0244C20.267 34.8518 19.5595 39.3039 20.2677 43.5927C21.4252 50.6023 26.3722 56.5956 33.0266 59.0501C35.451 59.9444 37.2907 60.2614 40.0537 60.2607C42.0501 60.2602 42.8108 60.1829 44.4563 59.8128C50.273 58.5049 55.285 54.5565 57.9285 49.1995C58.9805 47.0677 59.5564 45.1974 59.898 42.8025C60.0509 41.7313 60.0276 38.7237 59.8571 37.5343C59.3707 34.1395 58.0771 31.0063 56.0537 28.3221C55.6978 27.8499 55.373 27.4185 55.3321 27.3633C55.2766 27.2884 55.4182 27.1017 55.8919 26.6255L56.5261 25.988L56.885 26.3238C57.4344 26.8376 57.4899 26.8186 58.5795 25.7413C59.365 24.9647 59.5081 24.7878 59.5081 24.593C59.5081 24.3928 59.2749 24.1297 57.7201 22.576C56.1952 21.0521 55.8995 20.7892 55.7102 20.7892C55.5268 20.7892 55.3282 20.9494 54.5631 21.7144C53.4757 22.8019 53.4559 22.8589 53.9736 23.4123L54.3093 23.7712L53.6898 24.3874C53.3491 24.7264 53.0458 25.0037 53.0158 25.0037C52.9859 25.0037 52.7495 24.8315 52.4906 24.621C51.2154 23.5842 49.1979 22.401 47.5796 21.7409C46.205 21.1801 44.2624 20.6506 42.8571 20.4538L42.4996 20.4037V19.2042V18.0046H43.2203C43.9166 18.0046 43.9485 17.9972 44.1611 17.7846L44.3811 17.5647V15.4935V13.4222L44.1995 13.2111L44.0179 12.9999L40.1167 12.9848C37.971 12.9766 36.1429 12.9995 36.0542 13.0359ZM38.9624 23.935C38.9624 24.6425 38.9912 25.0024 39.0527 25.0639C39.1773 25.1885 40.8548 25.1885 40.9793 25.0639C41.0409 25.0024 41.0697 24.641 41.0697 23.9284V22.8832L41.3519 22.9236C41.5071 22.9458 41.8373 22.9847 42.0857 23.0099C45.1992 23.3267 48.5473 24.7687 51.124 26.9027L51.8498 27.5038L51.1635 28.1931C50.7859 28.5722 50.477 28.9319 50.477 28.9923C50.477 29.1618 51.6924 30.3471 51.8662 30.3471C51.9548 30.3471 52.284 30.0812 52.6656 29.7014L53.3143 29.0557L53.6958 29.5351C55.0675 31.2589 56.2833 33.6881 56.8381 35.8136C57.0978 36.8085 57.3048 38.0437 57.3694 38.9831L57.4224 39.7545H56.6365C56.1255 39.7545 55.8189 39.7861 55.7602 39.8448C55.7004 39.9046 55.6699 40.2294 55.6699 40.8081C55.6699 41.3868 55.7004 41.7116 55.7602 41.7714C55.8183 41.8295 56.1171 41.8617 56.5985 41.8617H57.3464L57.2954 42.3697C56.991 45.4011 55.4967 48.865 53.4117 51.3718L52.7943 52.1142L52.3672 51.6917C52.1324 51.4593 51.8911 51.2691 51.8311 51.2691C51.6629 51.2691 50.477 52.4849 50.477 52.6573C50.477 52.7397 50.6502 52.9825 50.8618 53.1969L51.2467 53.5866L50.8054 53.9381C48.2402 55.9816 45.0159 57.2669 41.54 57.6316L41.0697 57.6809V57.1617C41.0697 56.8583 41.0321 56.605 40.9793 56.5523C40.8548 56.4277 39.1773 56.4277 39.0527 56.5523C39 56.605 38.9624 56.8575 38.9624 57.1581V57.6736L38.492 57.6268C35.1573 57.2946 32.1986 56.1542 29.576 54.1899C29.1944 53.904 28.8602 53.6346 28.8333 53.5911C28.8064 53.5477 28.9578 53.3366 29.1698 53.1221C29.3816 52.9075 29.555 52.6829 29.555 52.6229C29.555 52.4635 28.3408 51.2691 28.1787 51.2691C28.1029 51.2691 27.8527 51.4469 27.6228 51.6642L27.2048 52.0593L26.9079 51.7207C25.1627 49.7295 23.8088 47.1551 23.1635 44.6011C22.932 43.685 22.7073 42.4389 22.7068 42.0687L22.7065 41.8617H23.444C23.9173 41.8617 24.2139 41.8294 24.2718 41.7714C24.3964 41.6469 24.3964 39.9693 24.2718 39.8448C24.2131 39.7861 23.9065 39.7545 23.3956 39.7545H22.6097L22.6627 38.9852C22.8141 36.7865 23.517 34.3126 24.5693 32.2751C24.945 31.5476 26.0807 29.8107 26.4916 29.3352L26.7482 29.0383L27.4178 29.6923C27.7861 30.052 28.1376 30.3465 28.1988 30.3467C28.3451 30.3472 29.555 29.1418 29.555 28.9955C29.555 28.9333 29.2464 28.5724 28.8691 28.1936L28.1832 27.5049L28.8879 26.9179C31.6542 24.6139 35.2241 23.1736 38.8307 22.9062C38.9502 22.8974 38.9624 22.9923 38.9624 23.935ZM40.0586 27.0182C40.0352 27.0416 40.016 29.114 40.016 31.6234V36.186L40.6678 36.309C42.3069 36.6185 43.5698 37.7521 43.9648 39.2685C44.1124 39.835 44.1124 40.8028 43.9648 41.3694C43.5432 42.9878 42.1346 44.1987 40.4488 44.3917L40.016 44.4412V49.0709V53.7004L40.8757 53.6544C44.9228 53.4375 48.8373 51.1761 51.1276 47.7319C52.2599 46.029 53.0103 44.0129 53.2635 41.9931C53.3979 40.9213 53.3239 38.8057 53.1158 37.7692C52.091 32.6651 48.1991 28.594 43.1833 27.3795C42.2276 27.1481 40.167 26.9098 40.0586 27.0182ZM39.2132 38.7649C38.4905 39.0147 37.9738 39.5608 37.7168 40.3466C37.4654 41.1149 37.7234 42.111 38.3312 42.7187C39.2473 43.6348 40.7941 43.6375 41.7069 42.7247C42.1696 42.262 42.3865 41.7103 42.3866 40.9962C42.3867 40.4888 42.3535 40.3266 42.1755 39.9641C41.6437 38.8812 40.3694 38.3653 39.2132 38.7649ZM29.2486 63.5928C28.8359 63.8018 28.5797 64.1302 28.4635 64.5993C28.4184 64.7814 28.4371 64.8007 28.7026 64.8464C28.861 64.8738 29.0838 64.9146 29.1975 64.9372C29.3664 64.9707 29.4045 64.9513 29.4045 64.8318C29.4045 64.6208 29.6703 64.3141 29.9041 64.2554C30.5303 64.0982 30.9302 64.8866 30.4507 65.3333C30.3648 65.4133 30.1833 65.4996 30.0473 65.5251C29.8321 65.5655 29.794 65.608 29.7536 65.8521C29.6673 66.3742 29.6715 66.3815 30.0334 66.3407C30.3188 66.3086 30.3941 66.333 30.614 66.5295C30.8436 66.7347 30.8667 66.7937 30.8667 67.1757C30.8667 67.537 30.836 67.628 30.6483 67.824C30.4742 68.0058 30.367 68.0519 30.1185 68.0519C29.775 68.0519 29.5525 67.8785 29.4086 67.4989C29.328 67.2862 29.3242 67.2851 28.858 67.3381C28.5998 67.3675 28.3746 67.4043 28.3577 67.4201C28.2679 67.5035 28.5508 68.1089 28.8121 68.3923C29.656 69.3079 31.2611 69.0676 31.7825 67.9478C32.1545 67.149 31.9035 66.3068 31.2076 66.0186L30.9964 65.9311L31.3226 65.618C32.5267 64.4625 30.8207 62.7965 29.2486 63.5928ZM33.612 63.56C32.8892 63.9396 32.5944 64.8512 32.6555 66.5182C32.6943 67.5789 32.8274 68.0291 33.228 68.4565C33.83 69.0986 34.8843 69.1196 35.5023 68.5016C35.942 68.062 36.1323 67.3725 36.1354 66.208C36.1384 65.1266 36.0236 64.5635 35.7023 64.0827C35.2503 63.4064 34.3386 63.1784 33.612 63.56ZM45.9615 63.875V64.3642H46.4883H47.0151V63.875V63.3858H46.4883H45.9615V63.875ZM34.5512 64.2857C34.9406 64.4337 35.0113 64.7235 35.0113 66.1704C35.0113 67.3625 34.9966 67.5124 34.8569 67.7508C34.5911 68.2046 34.1006 68.1595 33.8758 67.6605C33.7527 67.3873 33.7325 67.1671 33.7362 66.1349C33.7414 64.6476 33.8207 64.3992 34.3479 64.2184C34.3556 64.2158 34.4471 64.2461 34.5512 64.2857ZM40.7686 64.9357C40.6237 64.9985 40.412 65.139 40.2983 65.2479L40.0913 65.4459V65.1685V64.891H39.6021H39.1129V66.8854V68.8797H39.6397H40.1665V67.685C40.1665 67.0279 40.1876 66.3849 40.2134 66.2561C40.2834 65.9063 40.5833 65.6434 40.9106 65.6447C41.4655 65.6471 41.5212 65.8191 41.5212 67.5299V68.8797H42.048H42.5748V67.6052C42.5748 66.9042 42.6066 66.2471 42.6455 66.1449C42.764 65.833 43.0265 65.6436 43.3399 65.6436C43.8048 65.6436 43.8402 65.7621 43.8679 67.4122L43.8919 68.8421L44.3999 68.8644L44.9079 68.8866L44.9077 67.2839C44.9076 65.9089 44.889 65.6438 44.776 65.4178C44.6144 65.0942 44.0997 64.815 43.669 64.8174C43.3156 64.8193 42.8258 65.0249 42.618 65.2585L42.4729 65.4215L42.2417 65.1985C41.8353 64.8067 41.2908 64.7095 40.7686 64.9357ZM49.8448 64.89C49.7247 64.9282 49.4961 65.0641 49.3368 65.1921L49.0471 65.4249V65.1579V64.891H48.5579H48.0687V66.8854V68.8797H48.5956H49.1224L49.1242 67.732C49.1262 66.4054 49.189 66.0477 49.4613 65.8129C49.7524 65.5617 50.2627 65.5764 50.4715 65.8419C50.6169 66.0266 50.6276 66.1376 50.6276 67.46V68.8797H51.1584H51.6893L51.6664 67.2293C51.6414 65.4214 51.6332 65.3877 51.1319 65.0134C50.9042 64.8434 50.2035 64.7762 49.8448 64.89ZM45.9615 66.8854V68.8797H46.4883H47.0151V66.8854V64.891H46.4883H45.9615V66.8854Z" fill="white"/>
</svg>
