<svg width="80" height="81" viewBox="0 0 80 81" fill="none" xmlns="http://www.w3.org/2000/svg">
<rect y="0.984375" width="80" height="80" rx="16" fill="#30C330"/>
<path fill-rule="evenodd" clip-rule="evenodd" d="M48.1934 21.0967C46.3876 21.3496 44.8308 21.9411 43.2931 22.9588C42.4412 23.5226 41.4794 24.3641 41.2865 24.7143C40.8309 25.5417 41.4495 26.5475 42.4144 26.5482C42.8329 26.5486 42.9169 26.4977 44.0112 25.58C46.7656 23.2702 50.8124 22.8716 54.0888 24.5873C56.6401 25.9233 58.4677 28.5014 58.8846 31.3525C59.0275 32.3305 58.948 34.0945 58.7228 34.9408C58.3227 36.4439 57.5456 37.8938 56.5732 38.9516C55.8438 39.745 55.7519 40.36 56.274 40.9546C56.8395 41.5987 57.5874 41.542 58.3064 40.8004C60.3335 38.7097 61.5009 35.7735 61.5 32.7685C61.499 29.4106 60.2838 26.5597 57.8571 24.2223C55.2985 21.7579 51.7254 20.6022 48.1934 21.0967ZM48.503 25.3759C47.3464 25.5682 46.1458 26.1206 45.1364 26.925C44.4584 27.4651 44.2366 27.8006 44.2366 28.2856C44.2366 28.7857 44.4863 29.1717 44.9638 29.4093C45.4603 29.6565 45.7908 29.6116 46.2912 29.2291C47.6425 28.1963 48.2732 27.9201 49.4632 27.8401C50.2958 27.784 51.3035 28.0127 52.0232 28.4208C52.6631 28.7838 53.5435 29.6833 53.8704 30.3083C54.7375 31.9655 54.5463 34.024 53.3919 35.4621C52.811 36.1857 52.7142 36.3703 52.7139 36.7548C52.7131 37.6331 53.4783 38.2163 54.3062 37.9683C54.9173 37.7852 55.9678 36.4397 56.4234 35.2565C57.5698 32.2796 56.7832 29.0583 54.4142 27.0281C52.8087 25.6522 50.5829 25.0301 48.503 25.3759ZM48.0942 30.2977C47.9002 30.3614 47.5754 30.5063 47.3723 30.6198C47.1692 30.7333 44.2863 32.7976 40.9658 35.207C35.5223 39.1571 33.9715 40.2042 33.89 39.9845C33.8763 39.9477 34.0949 39.1698 34.3757 38.2558C34.9732 36.3114 35.0951 35.6371 35.0179 34.7047C34.8952 33.2204 34.4895 32.2104 33.7106 31.4503C32.4429 30.213 30.6629 30.0248 29.6651 31.0226C29.2745 31.4132 29.1156 31.7698 28.8161 32.928C28.2934 34.949 27.5212 36.8306 25.85 40.1548C25.0356 41.7747 24.8626 42.3746 24.535 44.7136C24.2099 47.0356 23.5016 49.2085 22.3457 51.4304C21.6015 52.861 21.4935 53.2226 21.5003 54.2608C21.5062 55.1568 21.6704 55.731 22.1441 56.5126C22.3156 56.7957 23.686 58.2247 25.8836 60.4123L29.3525 63.8652L29.9245 64.0478C31.0641 64.4116 31.6565 64.2648 33.1709 63.2437C34.4487 62.382 35.3255 61.9542 37.0304 61.3604C39.5012 60.4999 41.7152 59.3804 44.2647 57.7025C45.7609 56.7177 46.0431 56.3282 46.2222 55C46.3491 54.0586 46.3472 51.1304 46.219 50.0364C45.9165 47.4554 45.2933 44.9074 44.4505 42.8055L44.2782 42.3759L47.8227 38.8345C49.7722 36.8867 51.4574 35.1405 51.5675 34.9541C52.7832 32.8961 51.4485 30.3377 49.0953 30.2155C48.6857 30.1942 48.317 30.2245 48.0942 30.2977Z" fill="white"/>
</svg>
