<svg width="80" height="81" viewBox="0 0 80 81" fill="none" xmlns="http://www.w3.org/2000/svg">
<rect y="0.984375" width="80" height="80" rx="16" fill="#30C330"/>
<path fill-rule="evenodd" clip-rule="evenodd" d="M27.0367 21.7376C26.3319 21.8465 25.7203 22.0972 25.4151 22.4025C24.7127 23.1048 24.3625 25.6387 24.3612 30.0281L24.3605 32.2647L24.7685 32.1589C26.1907 31.7899 27.5668 32.3819 28.6678 33.8363C29.4063 34.8119 30.4366 37.1989 30.7752 38.7189C30.8303 38.9662 30.9137 39.168 30.9606 39.1674C31.0076 39.1666 31.4154 39.0996 31.867 39.0183C32.3185 38.937 33.0843 38.8274 33.5687 38.7747C34.6151 38.6608 34.5659 38.7286 34.5611 37.4092C34.5576 36.4439 34.4035 35.6348 34.0444 34.6969C33.8517 34.1938 33.7376 34.0249 33.3439 33.6604C32.0086 32.4241 30.5128 31.7855 28.7393 31.6943C28.2877 31.671 27.84 31.6363 27.7446 31.617C27.3732 31.5422 27.317 30.9413 27.6688 30.8076C27.9536 30.6993 29.6501 30.8559 30.4758 31.0666C31.4287 31.3099 32.3383 31.7531 33.207 32.3977L33.8825 32.8987L33.9368 32.1737C34.0314 30.9119 33.7449 29.2968 33.2176 28.119C32.8422 27.2804 31.6754 26.4157 30.4986 26.1039C30.2571 26.0398 29.6343 25.9986 28.8692 25.9959C27.7386 25.9919 27.6212 25.9784 27.5204 25.8405C27.2823 25.5149 27.4542 25.2148 27.9301 25.1255C28.3701 25.043 30.3754 25.1488 30.8385 25.279C31.4894 25.4619 32.3334 25.8931 32.8258 26.294L33.2744 26.6595V26.1683C33.2744 25.6005 33.0886 24.8774 32.688 23.8858C32.3772 23.1165 32.3786 22.9033 32.6957 22.7588C33.0366 22.6034 33.2077 22.789 33.5681 23.7047C34.0055 24.8162 34.1514 25.4158 34.1578 26.1299C34.1607 26.4633 34.1739 26.7359 34.1868 26.7359C34.1998 26.7359 34.5021 26.6514 34.8586 26.5481C36.5788 26.0495 39.2268 25.8008 41.2851 25.9444C42.744 26.0462 44.1878 26.2723 45.1394 26.5481C45.4959 26.6514 45.7982 26.7359 45.8112 26.7359C45.8241 26.7359 45.8372 26.4633 45.8402 26.1299C45.8466 25.4158 45.9924 24.8162 46.4299 23.7047C46.7902 22.789 46.9613 22.6034 47.3022 22.7588C47.6194 22.9033 47.6208 23.1165 47.31 23.8858C46.9093 24.8774 46.7235 25.6005 46.7235 26.1683V26.6595L47.1722 26.294C47.6646 25.8931 48.5086 25.4619 49.1595 25.279C49.6226 25.1488 51.6279 25.043 52.0678 25.1255C52.5437 25.2148 52.7157 25.5149 52.4776 25.8405C52.3768 25.9784 52.2593 25.9919 51.1288 25.9959C50.3674 25.9986 49.7397 26.04 49.4994 26.1034C48.341 26.409 47.151 27.2911 46.7804 28.119C46.2531 29.2968 45.9666 30.9119 46.0612 32.1737L46.1155 32.8987L46.7909 32.3977C47.6597 31.7531 48.5693 31.3099 49.5222 31.0666C50.3478 30.8559 52.0444 30.6993 52.3292 30.8076C52.681 30.9413 52.6247 31.5422 52.2534 31.617C52.1579 31.6363 51.7103 31.671 51.2587 31.6943C49.4851 31.7855 47.9894 32.4241 46.654 33.6604C46.2604 34.0249 46.1463 34.1938 45.9536 34.6969C45.5877 35.6525 45.436 36.4463 45.4353 37.4092C45.4344 38.7305 45.3836 38.6607 46.4292 38.7756C46.9136 38.8288 47.697 38.9387 48.1701 39.0199C48.6432 39.101 49.051 39.1677 49.0764 39.168C49.1019 39.1683 49.1677 38.9671 49.2228 38.7209C49.569 37.174 50.5833 34.823 51.3302 33.8363C52.4312 32.3819 53.8072 31.7899 55.2295 32.1589L55.6375 32.2647L55.6373 30.0281C55.6369 26.2008 55.3772 23.8569 54.8321 22.7637C54.6115 22.3209 54.1795 22.0308 53.4481 21.8339C52.7718 21.6518 50.7114 21.6507 48.4438 21.8314C43.5406 22.2219 36.6019 22.2264 31.6324 21.8423C29.6371 21.6881 27.65 21.6428 27.0367 21.7376ZM38.0051 26.865C37.1818 26.9535 35.7489 27.2179 35.1511 27.3915C34.1263 27.6891 34.032 27.7337 34.0957 27.8903C34.6412 29.2303 34.7992 30.0817 34.7992 31.6825C34.7992 32.8852 34.8149 33.0651 34.9165 33.0254C35.151 32.9337 36.4601 32.6865 37.2232 32.59C38.2449 32.4606 41.7531 32.4606 42.7748 32.59C43.5379 32.6865 44.847 32.9337 45.0815 33.0254C45.1831 33.0651 45.1991 32.8802 45.2012 31.6434C45.2038 30.1112 45.2927 29.5635 45.7372 28.3398C45.8464 28.0393 45.9107 27.7709 45.88 27.7435C45.7079 27.5892 44.1635 27.1808 43.0876 27.0051C42.3287 26.8812 38.7677 26.7831 38.0051 26.865ZM24.9469 33.0257C24.3862 33.1544 23.4404 33.4999 22.3506 33.9741C20.8616 34.622 20.3883 34.9844 20.0859 35.7083C19.9211 36.1026 19.9736 36.5326 20.4186 38.437C21.3157 42.2759 22.3096 45.2065 23.624 47.887C24.5578 49.7913 25.5052 51.1054 26.2057 51.4677C26.754 51.7512 28.5603 51.9784 31.7497 52.1651C34.1202 52.3039 45.9767 52.3036 48.2874 52.1648C51.4767 51.9731 53.2487 51.7487 53.7922 51.4677C55.2514 50.713 57.4807 46.2018 58.8823 41.1674C59.3437 39.5099 59.9294 37.007 59.9888 36.4389C60.0836 35.5314 59.5837 34.8915 58.2888 34.263C57.2303 33.7492 55.4965 33.1054 54.8675 32.9926C52.9286 32.6446 51.3399 34.519 50.2055 38.4931C50.0966 38.8742 50.0076 39.2315 50.0076 39.2869C50.0076 39.3442 50.2516 39.462 50.5718 39.5593C51.1724 39.7417 51.9237 40.0944 52.2977 40.3696C52.899 40.8121 53.0827 41.6255 52.9032 43.0517C52.7551 44.2284 52.5657 44.7499 52.1275 45.1881C51.3835 45.9321 49.4523 46.39 45.6289 46.7289C43.4196 46.9247 36.6333 46.9255 34.4082 46.7301C30.7981 46.4132 28.7384 45.957 27.9776 45.3058C27.3994 44.8109 27.1431 44.0304 27.0489 42.4774C26.9824 41.3822 27.0775 40.9867 27.5119 40.5523C27.8422 40.2219 28.8017 39.7345 29.5407 39.5216C29.788 39.4503 29.9903 39.3467 29.9903 39.2914C29.9903 39.0598 29.4801 37.4373 29.1425 36.5953C28.0233 33.8044 26.6491 32.6351 24.9469 33.0257ZM37.7314 33.4297C36.4024 33.581 34.88 33.8772 34.8047 33.9989C34.7855 34.03 34.8738 34.3649 35.0008 34.7431C35.3462 35.771 35.4862 36.7096 35.4476 37.7401L35.4148 38.6184L35.7325 38.5611C36.1469 38.4865 43.8511 38.4865 44.2655 38.5611L44.5832 38.6184L44.5503 37.7401C44.5116 36.705 44.661 35.7075 45.0035 34.7126C45.1292 34.3476 45.207 34.0248 45.1764 33.9953C45.0914 33.9136 44.1866 33.6929 43.4004 33.562C42.7288 33.4501 38.4317 33.3499 37.7314 33.4297ZM36.6367 39.4119C32.302 39.6403 29.0025 40.3208 28.1773 41.1566C27.9071 41.4302 27.8504 41.707 27.9143 42.4425C28.0367 43.8537 28.2377 44.4498 28.6837 44.7245C31.0811 46.2008 44.7749 46.5184 49.9445 45.2176C51.6467 44.7892 51.8667 44.5295 52.0467 42.7351C52.148 41.7261 52.1087 41.4485 51.8237 41.1591C50.5467 39.8625 43.4908 39.0508 36.6367 39.4119ZM28.4265 56.5563V60.2805H29.0486H29.6708L29.8745 59.6354C29.9865 59.2806 30.5013 57.6768 31.0183 56.0713C31.5354 54.4658 31.9373 53.131 31.9113 53.105C31.8853 53.0791 31.4337 53.0311 30.9076 52.9985C30.3816 52.9659 29.6081 52.9151 29.1889 52.8857L28.4265 52.832V56.5563ZM50.5159 52.9038C50.3869 52.9184 49.7982 52.9591 49.2076 52.9941C48.6171 53.0292 48.1126 53.0791 48.0867 53.105C48.0607 53.1311 48.4625 54.4658 48.9796 56.0713C49.4967 57.6768 50.0115 59.2806 50.1235 59.6354L50.3272 60.2805H50.9494H51.5715V56.5664V52.8522L51.161 52.8647C50.9352 52.8716 50.6449 52.8892 50.5159 52.9038Z" fill="white"/>
</svg>
