<svg width="300" height="73" viewBox="0 0 300 73" fill="none" xmlns="http://www.w3.org/2000/svg">
<path d="M14.2095 71.7355H0.759521V11.2929C0.759521 4.18202 4.22391 0.626572 11.1527 0.626572H47.1212C53.5065 0.626572 58.0578 2.52281 60.7749 6.31529C63.56 10.04 64.9526 15.6272 64.9526 23.0767C64.9526 38.9238 59.4503 46.8474 48.4458 46.8474H41.3132V47.3553L66.3791 71.7355H49.0572L26.0292 48.6759C23.7875 46.3056 22.6667 44.3078 22.6667 42.6824V41.0571C22.6667 39.5672 23.1761 38.382 24.1951 37.5016C25.2819 36.6212 26.7764 36.181 28.6784 36.181H42.536C46.0003 36.181 48.276 35.1313 49.3628 33.0319C50.5176 30.9325 51.095 27.6141 51.095 23.0767C51.095 18.7424 50.4157 15.6949 49.0572 13.9341C47.7665 12.1733 45.0833 11.2929 41.0075 11.2929H19.3042C17.2663 11.2929 15.9077 11.6315 15.2284 12.3088C14.5491 12.986 14.2095 14.3404 14.2095 16.3721V71.7355Z" fill="white"/>
<path d="M82.4146 0.626572L103.71 58.0216C103.71 58.0894 103.778 58.2587 103.914 58.5296C104.05 58.7327 104.152 58.902 104.22 59.0375C104.356 59.1052 104.492 59.2068 104.627 59.3422C104.831 59.4777 105.035 59.5454 105.239 59.5454C105.443 59.5454 105.612 59.4777 105.748 59.3422C105.952 59.2068 106.088 59.1052 106.156 59.0375C106.292 58.902 106.428 58.7327 106.563 58.5296C106.699 58.2587 106.767 58.0894 106.767 58.0216L128.063 0.626572H142.634L116.753 64.8278C114.715 69.9747 110.877 72.5482 105.239 72.5482C99.6007 72.5482 95.7627 69.9747 93.7248 64.8278L67.8438 0.626572H82.4146Z" fill="white"/>
<path d="M160.582 71.7355H147.132V11.2929C147.132 4.18202 150.597 0.626572 157.525 0.626572H203.887V11.2929H165.677C163.639 11.2929 162.28 11.6315 161.601 12.3088C160.922 12.986 160.582 14.3404 160.582 16.3721V30.4923H192.169V41.1587H160.582V71.7355Z" fill="white"/>
<path d="M224.465 71.7355H211.015V0.626572H224.465V71.7355Z" fill="white"/>
<path d="M271.841 71.7355H258.391V11.2929H230.574V0.626572H299.76V11.2929H271.841V71.7355Z" fill="white"/>
</svg>
